# xmcd CD database file
#
# Track frame offsets:
#	150
#	17802
#	38850
#	55285
#
# Disc length: 1039 seconds
#
# Revision: 0
# Processed by: cddbd v1.5.1PL0 Copyright (c) Steve Scherf et al.
# Submitted via: CDex 1.51
#
DISCID=2d040d04
DTITLE=THE　イナズマ戦隊 - あの夏の日々
DYEAR=2005
DGENRE=Rock and Roll
TTITLE0=あの夏の日々
TTITLE1=リキみすぎずに抜き過ぎずに
TTITLE2=ええじゃないか音頭〜ズッコケ中１編〜
TTITLE3=明日を迎えに行こう
EXTD=YEAR: 2005
EXTT0=
EXTT1=
EXTT2=
EXTT3=
PLAYORDER=
